<?xml version="1.0" encoding="utf-8"?>
<!-- Generator: Adobe Illustrator 27.4.0, SVG Export Plug-In . SVG Version: 6.00 Build 0)  -->
<svg version="1.1" id="Layer_1" xmlns="http://www.w3.org/2000/svg" xmlns:xlink="http://www.w3.org/1999/xlink" x="0px" y="0px"
	 viewBox="0 0 422.33 215.29" style="enable-background:new 0 0 422.33 215.29;" xml:space="preserve">
<style type="text/css">
	.st0{fill:#231F20;}
	.st1{fill:#0367AF;}
	.st2{fill:#EC2227;}
	.st3{fill:none;stroke:#0568AF;stroke-width:1.5012;stroke-linecap:round;stroke-miterlimit:10;}
</style>
<g>
	<g>
		<path class="st0" d="M195.35,149.66l1.05-0.17c0.06,0.42,0.22,0.74,0.49,0.97c0.27,0.22,0.64,0.34,1.13,0.34
			c0.49,0,0.85-0.1,1.08-0.3c0.24-0.2,0.35-0.43,0.35-0.7c0-0.24-0.1-0.43-0.31-0.57c-0.14-0.09-0.51-0.21-1.08-0.36
			c-0.78-0.2-1.32-0.37-1.62-0.51c-0.3-0.14-0.53-0.34-0.68-0.59c-0.15-0.25-0.23-0.53-0.23-0.84c0-0.28,0.07-0.54,0.19-0.77
			c0.13-0.24,0.3-0.43,0.52-0.59c0.17-0.12,0.39-0.22,0.67-0.31c0.29-0.08,0.59-0.13,0.92-0.13c0.49,0,0.92,0.07,1.29,0.21
			c0.37,0.14,0.64,0.33,0.82,0.57c0.18,0.24,0.3,0.56,0.36,0.97l-1.04,0.14c-0.05-0.32-0.18-0.57-0.41-0.75
			c-0.23-0.18-0.54-0.27-0.96-0.27c-0.49,0-0.83,0.08-1.04,0.24c-0.21,0.16-0.31,0.35-0.31,0.56c0,0.14,0.04,0.26,0.13,0.37
			c0.09,0.12,0.22,0.21,0.41,0.28c0.11,0.04,0.42,0.13,0.94,0.27c0.75,0.2,1.27,0.36,1.57,0.49c0.3,0.13,0.53,0.31,0.7,0.56
			c0.17,0.24,0.25,0.55,0.25,0.91c0,0.35-0.1,0.69-0.31,1c-0.21,0.31-0.5,0.55-0.89,0.72c-0.39,0.17-0.83,0.26-1.32,0.26
			c-0.81,0-1.43-0.17-1.86-0.51C195.74,150.82,195.47,150.32,195.35,149.66z"/>
		<path class="st0" d="M207.39,150.75c-0.39,0.33-0.77,0.57-1.13,0.71c-0.36,0.14-0.75,0.21-1.17,0.21c-0.69,0-1.21-0.17-1.58-0.5
			c-0.37-0.34-0.55-0.76-0.55-1.29c0-0.31,0.07-0.58,0.21-0.84c0.14-0.25,0.32-0.46,0.55-0.61c0.23-0.15,0.48-0.27,0.76-0.35
			c0.21-0.05,0.52-0.11,0.94-0.16c0.86-0.1,1.49-0.22,1.89-0.36c0-0.14,0.01-0.24,0.01-0.28c0-0.43-0.1-0.74-0.3-0.91
			c-0.27-0.24-0.67-0.36-1.21-0.36c-0.5,0-0.87,0.09-1.1,0.26c-0.24,0.17-0.41,0.48-0.53,0.93l-1.04-0.14
			c0.09-0.44,0.25-0.8,0.46-1.07c0.22-0.27,0.53-0.48,0.94-0.63c0.41-0.15,0.88-0.22,1.42-0.22c0.53,0,0.97,0.06,1.3,0.19
			c0.33,0.13,0.58,0.28,0.74,0.47c0.16,0.19,0.27,0.43,0.33,0.72c0.04,0.18,0.05,0.51,0.05,0.98v1.41c0,0.99,0.02,1.61,0.07,1.87
			c0.05,0.26,0.14,0.51,0.27,0.75h-1.11C207.49,151.31,207.42,151.05,207.39,150.75z M207.3,148.39c-0.38,0.16-0.96,0.29-1.73,0.4
			c-0.44,0.06-0.74,0.13-0.92,0.21c-0.18,0.08-0.32,0.19-0.42,0.34c-0.1,0.15-0.15,0.32-0.15,0.5c0,0.28,0.11,0.52,0.32,0.71
			c0.21,0.19,0.53,0.28,0.94,0.28c0.41,0,0.77-0.09,1.09-0.27c0.32-0.18,0.55-0.42,0.7-0.73c0.11-0.24,0.17-0.59,0.17-1.06V148.39z"
			/>
		<path class="st0" d="M211.49,151.53v-8.63h1.06v8.63H211.49z"/>
		<path class="st0" d="M219.98,149.51l1.09,0.13c-0.17,0.64-0.49,1.14-0.96,1.49c-0.47,0.35-1.06,0.53-1.79,0.53
			c-0.91,0-1.64-0.28-2.17-0.84c-0.54-0.56-0.8-1.35-0.8-2.37c0-1.05,0.27-1.87,0.81-2.45c0.54-0.58,1.25-0.87,2.11-0.87
			c0.83,0,1.52,0.29,2.05,0.85c0.53,0.57,0.79,1.37,0.79,2.4c0,0.06,0,0.16-0.01,0.28h-4.66c0.04,0.69,0.23,1.21,0.58,1.58
			c0.35,0.37,0.79,0.55,1.31,0.55c0.39,0,0.72-0.1,0.99-0.31C219.6,150.29,219.82,149.96,219.98,149.51z M216.5,147.8h3.49
			c-0.05-0.53-0.18-0.92-0.4-1.18c-0.34-0.41-0.77-0.61-1.31-0.61c-0.49,0-0.89,0.16-1.23,0.49
			C216.72,146.82,216.54,147.26,216.5,147.8z"/>
		<path class="st0" d="M223.49,149.66l1.05-0.17c0.06,0.42,0.22,0.74,0.49,0.97c0.27,0.22,0.64,0.34,1.13,0.34
			c0.49,0,0.85-0.1,1.08-0.3c0.24-0.2,0.35-0.43,0.35-0.7c0-0.24-0.1-0.43-0.31-0.57c-0.14-0.09-0.51-0.21-1.08-0.36
			c-0.78-0.2-1.32-0.37-1.62-0.51c-0.3-0.14-0.53-0.34-0.68-0.59c-0.15-0.25-0.23-0.53-0.23-0.84c0-0.28,0.06-0.54,0.19-0.77
			c0.13-0.24,0.3-0.43,0.52-0.59c0.17-0.12,0.39-0.22,0.67-0.31c0.29-0.08,0.59-0.13,0.92-0.13c0.49,0,0.92,0.07,1.29,0.21
			c0.37,0.14,0.64,0.33,0.82,0.57c0.18,0.24,0.3,0.56,0.37,0.97l-1.04,0.14c-0.05-0.32-0.18-0.57-0.41-0.75
			c-0.23-0.18-0.54-0.27-0.96-0.27c-0.49,0-0.83,0.08-1.04,0.24c-0.21,0.16-0.31,0.35-0.31,0.56c0,0.14,0.04,0.26,0.13,0.37
			c0.09,0.12,0.22,0.21,0.41,0.28c0.11,0.04,0.42,0.13,0.94,0.27c0.75,0.2,1.27,0.36,1.57,0.49c0.3,0.13,0.53,0.31,0.7,0.56
			c0.17,0.24,0.25,0.55,0.25,0.91c0,0.35-0.1,0.69-0.31,1c-0.21,0.31-0.5,0.55-0.89,0.72c-0.39,0.17-0.83,0.26-1.32,0.26
			c-0.81,0-1.43-0.17-1.86-0.51C223.88,150.82,223.61,150.32,223.49,149.66z"/>
		<path class="st0" d="M241.23,150.51c-0.35,0.39-0.73,0.68-1.14,0.87c-0.41,0.19-0.86,0.29-1.34,0.29c-0.88,0-1.58-0.3-2.1-0.89
			c-0.42-0.49-0.63-1.03-0.63-1.63c0-0.53,0.17-1.02,0.51-1.44c0.34-0.43,0.86-0.81,1.54-1.13c-0.39-0.45-0.65-0.81-0.78-1.09
			c-0.13-0.28-0.19-0.55-0.19-0.81c0-0.52,0.2-0.97,0.61-1.35c0.41-0.38,0.92-0.57,1.53-0.57c0.59,0,1.07,0.18,1.45,0.54
			c0.38,0.36,0.56,0.79,0.56,1.3c0,0.82-0.54,1.52-1.63,2.1l1.55,1.97c0.18-0.34,0.31-0.75,0.41-1.2l1.1,0.24
			c-0.19,0.75-0.44,1.38-0.77,1.86c0.4,0.53,0.85,0.97,1.35,1.32l-0.71,0.84C242.13,151.45,241.69,151.05,241.23,150.51z
			 M240.57,149.67l-1.94-2.41c-0.57,0.34-0.96,0.66-1.16,0.95c-0.2,0.29-0.3,0.58-0.3,0.87c0,0.35,0.14,0.71,0.42,1.09
			c0.28,0.38,0.67,0.56,1.18,0.56c0.32,0,0.65-0.1,0.99-0.3C240.09,150.24,240.36,149.99,240.57,149.67z M239.08,146.01
			c0.46-0.27,0.76-0.51,0.89-0.71c0.13-0.2,0.2-0.43,0.2-0.68c0-0.29-0.09-0.53-0.28-0.72c-0.19-0.18-0.42-0.28-0.7-0.28
			c-0.29,0-0.52,0.09-0.71,0.28c-0.19,0.18-0.29,0.41-0.29,0.68c0,0.13,0.04,0.27,0.1,0.42c0.07,0.15,0.17,0.3,0.31,0.47
			L239.08,146.01z"/>
		<path class="st0" d="M250.28,149.66l1.05-0.17c0.06,0.42,0.22,0.74,0.49,0.97c0.27,0.22,0.64,0.34,1.13,0.34
			c0.49,0,0.85-0.1,1.08-0.3c0.24-0.2,0.35-0.43,0.35-0.7c0-0.24-0.1-0.43-0.31-0.57c-0.14-0.09-0.51-0.21-1.08-0.36
			c-0.78-0.2-1.32-0.37-1.62-0.51c-0.3-0.14-0.53-0.34-0.68-0.59c-0.15-0.25-0.23-0.53-0.23-0.84c0-0.28,0.07-0.54,0.19-0.77
			c0.13-0.24,0.3-0.43,0.52-0.59c0.16-0.12,0.39-0.22,0.67-0.31c0.29-0.08,0.59-0.13,0.92-0.13c0.49,0,0.92,0.07,1.29,0.21
			c0.37,0.14,0.64,0.33,0.82,0.57c0.18,0.24,0.3,0.56,0.37,0.97l-1.04,0.14c-0.05-0.32-0.18-0.57-0.41-0.75
			c-0.22-0.18-0.54-0.27-0.96-0.27c-0.49,0-0.83,0.08-1.04,0.24c-0.21,0.16-0.31,0.35-0.31,0.56c0,0.14,0.04,0.26,0.13,0.37
			c0.09,0.12,0.22,0.21,0.41,0.28c0.11,0.04,0.42,0.13,0.94,0.27c0.75,0.2,1.27,0.36,1.57,0.49c0.3,0.13,0.53,0.31,0.7,0.56
			c0.17,0.24,0.25,0.55,0.25,0.91c0,0.35-0.1,0.69-0.31,1c-0.21,0.31-0.5,0.55-0.89,0.72c-0.39,0.17-0.83,0.26-1.32,0.26
			c-0.81,0-1.43-0.17-1.86-0.51C250.67,150.82,250.39,150.32,250.28,149.66z"/>
		<path class="st0" d="M262.51,149.51l1.09,0.13c-0.17,0.64-0.49,1.14-0.96,1.49c-0.47,0.35-1.06,0.53-1.79,0.53
			c-0.91,0-1.64-0.28-2.17-0.84c-0.54-0.56-0.8-1.35-0.8-2.37c0-1.05,0.27-1.87,0.81-2.45c0.54-0.58,1.25-0.87,2.11-0.87
			c0.83,0,1.52,0.29,2.05,0.85c0.53,0.57,0.79,1.37,0.79,2.4c0,0.06,0,0.16-0.01,0.28h-4.66c0.04,0.69,0.23,1.21,0.58,1.58
			c0.35,0.37,0.79,0.55,1.31,0.55c0.39,0,0.72-0.1,0.99-0.31C262.13,150.29,262.35,149.96,262.51,149.51z M259.03,147.8h3.49
			c-0.05-0.53-0.18-0.92-0.4-1.18c-0.34-0.41-0.77-0.61-1.31-0.61c-0.49,0-0.89,0.16-1.23,0.49
			C259.25,146.82,259.07,147.26,259.03,147.8z"/>
		<path class="st0" d="M266.43,151.53v-6.25h0.95v0.95c0.24-0.44,0.47-0.74,0.67-0.88c0.21-0.14,0.43-0.21,0.68-0.21
			c0.36,0,0.72,0.11,1.09,0.34l-0.37,0.98c-0.26-0.15-0.52-0.23-0.78-0.23c-0.23,0-0.44,0.07-0.62,0.21
			c-0.18,0.14-0.31,0.33-0.39,0.58c-0.12,0.38-0.18,0.79-0.18,1.24v3.27H266.43z"/>
		<path class="st0" d="M273.7,151.53l-2.38-6.25h1.12l1.34,3.74c0.15,0.41,0.28,0.82,0.4,1.26c0.09-0.33,0.23-0.73,0.39-1.19
			l1.39-3.81h1.09l-2.37,6.25H273.7z"/>
		<path class="st0" d="M279.5,144.12v-1.22h1.06v1.22H279.5z M279.5,151.53v-6.25h1.06v6.25H279.5z"/>
		<path class="st0" d="M287.76,149.24l1.04,0.14c-0.11,0.72-0.41,1.28-0.87,1.69c-0.47,0.41-1.04,0.61-1.73,0.61
			c-0.85,0-1.54-0.28-2.06-0.84c-0.52-0.56-0.78-1.36-0.78-2.4c0-0.67,0.11-1.27,0.34-1.77c0.22-0.51,0.56-0.89,1.02-1.14
			c0.46-0.25,0.95-0.38,1.49-0.38c0.68,0,1.23,0.17,1.67,0.51c0.43,0.34,0.71,0.83,0.83,1.46l-1.03,0.16
			c-0.1-0.42-0.27-0.74-0.52-0.95c-0.25-0.21-0.55-0.32-0.9-0.32c-0.53,0-0.97,0.19-1.3,0.57c-0.33,0.38-0.5,0.99-0.5,1.82
			c0,0.84,0.16,1.45,0.48,1.83c0.32,0.38,0.74,0.57,1.26,0.57c0.42,0,0.76-0.13,1.04-0.38
			C287.51,150.16,287.69,149.77,287.76,149.24z"/>
		<path class="st0" d="M295.49,149.51l1.09,0.13c-0.17,0.64-0.49,1.14-0.96,1.49c-0.47,0.35-1.06,0.53-1.79,0.53
			c-0.91,0-1.64-0.28-2.17-0.84c-0.54-0.56-0.8-1.35-0.8-2.37c0-1.05,0.27-1.87,0.81-2.45c0.54-0.58,1.24-0.87,2.11-0.87
			c0.84,0,1.52,0.29,2.05,0.85c0.53,0.57,0.8,1.37,0.8,2.4c0,0.06,0,0.16-0.01,0.28h-4.66c0.04,0.69,0.23,1.21,0.58,1.58
			c0.35,0.37,0.79,0.55,1.31,0.55c0.39,0,0.72-0.1,1-0.31C295.11,150.29,295.33,149.96,295.49,149.51z M292.01,147.8h3.49
			c-0.05-0.53-0.18-0.92-0.4-1.18c-0.34-0.41-0.77-0.61-1.31-0.61c-0.49,0-0.89,0.16-1.23,0.49
			C292.23,146.82,292.05,147.26,292.01,147.8z"/>
		<path class="st0" d="M299,149.66l1.05-0.17c0.06,0.42,0.22,0.74,0.49,0.97c0.27,0.22,0.64,0.34,1.13,0.34
			c0.49,0,0.85-0.1,1.08-0.3c0.24-0.2,0.35-0.43,0.35-0.7c0-0.24-0.1-0.43-0.31-0.57c-0.14-0.09-0.51-0.21-1.08-0.36
			c-0.78-0.2-1.31-0.37-1.62-0.51c-0.3-0.14-0.53-0.34-0.68-0.59c-0.15-0.25-0.23-0.53-0.23-0.84c0-0.28,0.06-0.54,0.19-0.77
			c0.13-0.24,0.3-0.43,0.52-0.59c0.17-0.12,0.39-0.22,0.67-0.31c0.29-0.08,0.59-0.13,0.92-0.13c0.49,0,0.92,0.07,1.29,0.21
			c0.37,0.14,0.64,0.33,0.82,0.57c0.18,0.24,0.3,0.56,0.36,0.97l-1.04,0.14c-0.05-0.32-0.18-0.57-0.41-0.75
			c-0.23-0.18-0.54-0.27-0.96-0.27c-0.49,0-0.83,0.08-1.04,0.24c-0.21,0.16-0.31,0.35-0.31,0.56c0,0.14,0.04,0.26,0.13,0.37
			c0.09,0.12,0.22,0.21,0.41,0.28c0.11,0.04,0.42,0.13,0.94,0.27c0.75,0.2,1.27,0.36,1.57,0.49c0.3,0.13,0.53,0.31,0.7,0.56
			c0.17,0.24,0.25,0.55,0.25,0.91c0,0.35-0.1,0.69-0.31,1c-0.21,0.31-0.5,0.55-0.89,0.72c-0.39,0.17-0.83,0.26-1.32,0.26
			c-0.81,0-1.43-0.17-1.86-0.51C299.39,150.82,299.12,150.32,299,149.66z"/>
	</g>
	<g>
		<path class="st1" d="M267.44,122.39h-5.9v-1.81c0-0.84-0.08-1.38-0.23-1.61c-0.15-0.23-0.4-0.35-0.75-0.35
			c-0.38,0-0.67,0.16-0.87,0.47c-0.19,0.31-0.29,0.78-0.29,1.42c0,0.81,0.11,1.43,0.33,1.84c0.21,0.41,0.81,0.91,1.79,1.49
			c2.83,1.68,4.61,3.05,5.34,4.13c0.73,1.08,1.1,2.81,1.1,5.2c0,1.74-0.2,3.02-0.61,3.84c-0.41,0.83-1.19,1.51-2.36,2.07
			c-1.17,0.56-2.52,0.84-4.07,0.84c-1.7,0-3.15-0.32-4.35-0.96c-1.2-0.64-1.99-1.46-2.36-2.46c-0.37-1-0.56-2.41-0.56-4.24v-1.6h5.9
			v2.97c0,0.91,0.08,1.5,0.25,1.76c0.17,0.26,0.46,0.39,0.88,0.39c0.42,0,0.74-0.17,0.94-0.5c0.21-0.33,0.31-0.82,0.31-1.48
			c0-1.44-0.19-2.38-0.59-2.82c-0.4-0.44-1.39-1.18-2.97-2.22c-1.58-1.04-2.62-1.8-3.14-2.28c-0.51-0.47-0.94-1.12-1.27-1.96
			c-0.34-0.83-0.51-1.9-0.51-3.2c0-1.87,0.24-3.24,0.72-4.1c0.48-0.86,1.25-1.54,2.31-2.03c1.07-0.49,2.35-0.73,3.86-0.73
			c1.65,0,3.05,0.27,4.21,0.8c1.16,0.53,1.93,1.21,2.31,2.01c0.38,0.81,0.56,2.18,0.56,4.12V122.39z"/>
		<path class="st1" d="M283.56,126.43v4.9c0,1.8-0.09,3.12-0.27,3.96c-0.18,0.84-0.57,1.62-1.16,2.35
			c-0.59,0.73-1.35,1.27-2.28,1.61c-0.93,0.35-2,0.52-3.21,0.52c-1.35,0-2.49-0.15-3.42-0.44c-0.93-0.3-1.66-0.74-2.18-1.34
			c-0.52-0.6-0.89-1.32-1.11-2.17c-0.22-0.85-0.33-2.12-0.33-3.82v-5.13c0-1.86,0.2-3.31,0.6-4.36c0.4-1.05,1.12-1.88,2.17-2.52
			c1.04-0.63,2.38-0.95,4.01-0.95c1.37,0,2.54,0.2,3.52,0.61c0.98,0.41,1.74,0.94,2.27,1.59c0.53,0.65,0.9,1.33,1.09,2.02
			C283.46,123.96,283.56,125.02,283.56,126.43z M277.47,124.93c0-1.03-0.06-1.67-0.17-1.94c-0.11-0.27-0.35-0.4-0.71-0.4
			c-0.36,0-0.6,0.13-0.72,0.4c-0.12,0.27-0.18,0.91-0.18,1.94v9.03c0,0.94,0.06,1.56,0.18,1.85c0.12,0.29,0.36,0.43,0.71,0.43
			c0.36,0,0.6-0.13,0.72-0.39c0.12-0.26,0.17-0.82,0.17-1.69V124.93z"/>
		<path class="st1" d="M293.33,115v3.09c-1.26,0-2,0.06-2.22,0.17c-0.23,0.11-0.34,0.44-0.34,0.99v0.63h2.56v3.17h-1.45v16.36h-6.09
			v-16.36h-1.25v-3.17h1.25c0-1.32,0.05-2.2,0.14-2.64c0.09-0.44,0.31-0.84,0.67-1.18c0.36-0.35,0.86-0.61,1.5-0.79
			c0.64-0.18,1.64-0.27,3-0.27H293.33z"/>
		<path class="st1" d="M302.46,116.74v3.15h1.64v3.17h-1.64v10.71c0,1.32,0.07,2.05,0.2,2.2c0.13,0.15,0.7,0.23,1.7,0.23v3.23h-2.46
			c-1.39,0-2.38-0.06-2.97-0.17c-0.59-0.12-1.12-0.38-1.57-0.8c-0.45-0.42-0.73-0.89-0.84-1.43c-0.11-0.54-0.17-1.8-0.17-3.79
			v-10.16h-1.31v-3.17h1.31v-3.15H302.46z"/>
	</g>
	<path class="st2" d="M233.48,101.12h-16.59c-0.14,0-0.27,0.01-0.4,0.02l-6.85-4.76c-3.84-3.02-3.14-4.7-3.14-4.7v-5.4v-0.14v-5.4
		c0,0-0.7-1.68,3.14-4.7l6.67-4.64c0.19,0.03,0.38,0.04,0.58,0.04h16.59c2.17,0,3.93-1.76,3.93-3.93c0-2.17-1.76-3.93-3.93-3.93
		h-17.69c0,0.01-0.01,0.02-0.01,0.02c-1.74,0.14-2.62,0.88-2.62,0.88l-10.69,8.53c0,0-3.67,2.52-3.67,9.41v3.72v0.14v3.72
		c0,6.89,3.67,9.41,3.67,9.41l11.63,8.42c0.71,0.71,1.69,1.15,2.78,1.15h16.59c2.17,0,3.93-1.76,3.93-3.93
		C237.41,102.87,235.65,101.12,233.48,101.12z"/>
	<path class="st3" d="M228.46,91.3l-5.88-5.88c0,0-3.2-5.06,0.72-9.18c3.92-4.12,10.52-2.27,12.07,2.27c0,0,0.31,1.03-1.14,1.86
		c-1.44,0.83-4.12-2.48-4.12-2.48s-2.48-1.65-4.23,0.72c0,0-2.37,2.17,0.83,5.37l4.95,5.47c0,0,2.58,3.61-1.55,5.88
		c-4.13,2.27-5.67-2.99-5.67-2.99s-0.83-1.86-2.68-0.41c0,0-1.65,1.24,0.52,4.23c2.17,2.99,8.05,4.64,11.86,0.41
		c0,0,1.96-4.54,3.51-1.13c1.55,3.4,0.62,4.13,1.34,4.13"/>
	<path class="st1" d="M238.17,100.42c0,0-1.05,1.73,1.16,3.31c2.21,1.58,5.94,3.78,8.78,6.31c2.84,2.52,6.25,1.79,9.2-0.32
		c2.94-2.1,1.58-6.67-2.78-8.78c-4.36-2.1-6.41-2.16-6.41-2.16s-3.46,1.59-5.86,3.23c0,0,6.31,3.05,6.88,5.41l0.34,1.87
		c0,0-3.15-3.21-6.94-5.41C238.75,101.68,238.07,101.52,238.17,100.42z"/>
	<g>
		<g>
			<path class="st1" d="M238.59,99.68c0,0,1.1,1.37,2.89,1.89c0,0,0.95-1.42,1.99-2c0,0-1.46-1.26-2.36-0.94
				C241.11,98.63,239.8,98.58,238.59,99.68z"/>
			<path class="st1" d="M244.01,99.16c0,0-1.05-0.79-1.68-0.89c0,0,2.45-0.83,4.39,0.27C246.72,98.53,244.85,98.63,244.01,99.16z"/>
		</g>
	</g>
	<g>
		<path class="st0" d="M146.55,124.58c1.24,0,2.4,0.31,3.47,0.93c1.07,0.62,1.88,1.5,2.44,2.64c0.55,1.14,0.83,2.39,0.83,3.75
			c0,1.96-0.51,3.6-1.54,4.92c-1.24,1.6-2.96,2.39-5.15,2.39c-2.15,0-3.8-0.73-4.97-2.19c-1.16-1.46-1.74-3.15-1.74-5.06
			c0-1.98,0.59-3.71,1.78-5.18C142.86,125.32,144.48,124.58,146.55,124.58z M146.61,125.63c-0.52,0-0.97,0.19-1.34,0.57
			c-0.37,0.38-0.61,1.13-0.73,2.25c-0.12,1.12-0.17,2.67-0.17,4.66c0,1.05,0.07,2.04,0.21,2.95c0.11,0.7,0.35,1.23,0.72,1.59
			c0.37,0.36,0.78,0.55,1.25,0.55c0.46,0,0.84-0.12,1.15-0.37c0.4-0.34,0.66-0.8,0.79-1.4c0.2-0.93,0.31-2.83,0.31-5.67
			c0-1.67-0.1-2.82-0.29-3.45c-0.19-0.62-0.48-1.08-0.85-1.37C147.38,125.73,147.04,125.63,146.61,125.63z"/>
		<path class="st0" d="M160.81,124.99v1.82c0.78-0.83,1.51-1.41,2.18-1.74c0.67-0.33,1.4-0.49,2.19-0.49c0.92,0,1.68,0.21,2.31,0.62
			c0.62,0.42,1.1,1.04,1.43,1.89c0.82-0.88,1.6-1.53,2.34-1.92c0.75-0.39,1.53-0.59,2.35-0.59c0.99,0,1.77,0.22,2.36,0.66
			c0.59,0.44,0.99,1,1.22,1.67c0.23,0.67,0.34,1.75,0.34,3.23v5.65c0,1.06,0.1,1.72,0.3,1.98c0.2,0.25,0.61,0.42,1.25,0.5v0.53
			h-7.38v-0.53c0.58-0.05,1.01-0.27,1.28-0.65c0.18-0.27,0.27-0.88,0.27-1.83v-5.94c0-1.23-0.05-2.01-0.15-2.35
			c-0.1-0.34-0.26-0.58-0.48-0.75c-0.22-0.16-0.48-0.24-0.77-0.24c-0.44,0-0.88,0.15-1.33,0.46c-0.45,0.31-0.9,0.78-1.36,1.39v7.41
			c0,0.99,0.09,1.62,0.26,1.88c0.23,0.36,0.68,0.57,1.34,0.61v0.53h-7.39v-0.53c0.4-0.02,0.71-0.12,0.94-0.29
			c0.23-0.17,0.38-0.38,0.46-0.62c0.08-0.24,0.12-0.77,0.12-1.57v-5.94c0-1.25-0.05-2.03-0.15-2.35c-0.1-0.31-0.27-0.56-0.51-0.74
			c-0.24-0.18-0.5-0.27-0.77-0.27c-0.41,0-0.78,0.1-1.11,0.31c-0.48,0.31-0.99,0.83-1.53,1.56v7.41c0,0.98,0.1,1.62,0.3,1.93
			c0.2,0.31,0.61,0.49,1.25,0.55v0.53H155v-0.53c0.6-0.06,1.03-0.25,1.28-0.56c0.17-0.22,0.26-0.86,0.26-1.92v-7.8
			c0-1.04-0.1-1.69-0.3-1.95c-0.2-0.26-0.61-0.42-1.24-0.5v-0.54H160.81z"/>
		<path class="st0" d="M185.91,137.4v5.14c0,0.71,0.06,1.19,0.18,1.45c0.12,0.26,0.3,0.44,0.54,0.56c0.25,0.12,0.72,0.18,1.44,0.18
			v0.54h-8.14v-0.54c0.63-0.02,1.1-0.19,1.4-0.52c0.2-0.23,0.31-0.81,0.31-1.76v-14.58c0-0.98-0.12-1.6-0.35-1.87
			c-0.23-0.27-0.69-0.42-1.36-0.46v-0.54h5.98v1.82c0.5-0.71,1.01-1.22,1.53-1.54c0.74-0.46,1.55-0.69,2.43-0.69
			c1.05,0,2,0.32,2.86,0.96c0.86,0.64,1.51,1.52,1.96,2.65c0.45,1.13,0.67,2.34,0.67,3.64c0,1.4-0.23,2.67-0.7,3.83
			c-0.46,1.16-1.13,2.04-2.02,2.64c-0.88,0.61-1.86,0.91-2.94,0.91c-0.78,0-1.52-0.17-2.2-0.5
			C187,138.46,186.47,138.02,185.91,137.4z M185.91,135.91c0.88,1.2,1.81,1.8,2.81,1.8c0.55,0,1-0.28,1.36-0.84
			c0.53-0.83,0.79-2.4,0.79-4.72c0-2.38-0.29-4.01-0.87-4.89c-0.39-0.58-0.9-0.87-1.56-0.87c-1.03,0-1.87,0.72-2.54,2.16V135.91z"/>
		<path class="st0" d="M211,124.99v10.81c0,1.05,0.1,1.71,0.31,1.97c0.2,0.26,0.61,0.42,1.24,0.5v0.53h-5.82v-1.84
			c-0.68,0.79-1.36,1.36-2.04,1.72c-0.68,0.36-1.44,0.54-2.29,0.54c-0.8,0-1.52-0.24-2.15-0.72c-0.63-0.48-1.05-1.04-1.26-1.68
			c-0.21-0.64-0.32-1.76-0.32-3.35v-5.48c0-1.04-0.1-1.69-0.3-1.95c-0.2-0.26-0.61-0.42-1.24-0.5v-0.54h5.82v9.44
			c0,0.98,0.05,1.62,0.14,1.9c0.1,0.29,0.25,0.5,0.46,0.65c0.21,0.15,0.45,0.22,0.73,0.22c0.37,0,0.7-0.09,0.99-0.28
			c0.41-0.26,0.9-0.77,1.47-1.55v-7.38c0-1.04-0.1-1.69-0.3-1.95c-0.2-0.26-0.61-0.42-1.25-0.5v-0.54H211z"/>
		<path class="st0" d="M219.71,119.94v5.05h3.39v1.46h-3.39v8.52c0,0.8,0.04,1.31,0.11,1.54c0.08,0.23,0.21,0.42,0.41,0.56
			c0.19,0.14,0.37,0.21,0.54,0.21c0.66,0,1.29-0.49,1.88-1.46l0.46,0.33c-0.83,1.89-2.16,2.84-4.02,2.84c-0.91,0-1.67-0.25-2.3-0.73
			c-0.63-0.49-1.03-1.03-1.2-1.63c-0.1-0.33-0.15-1.24-0.15-2.72v-7.46h-1.86v-0.52c1.28-0.88,2.37-1.79,3.28-2.76
			c0.9-0.96,1.69-2.04,2.36-3.23H219.71z"/>
		<path class="st0" d="M235.99,131.4h-7.83c0.09,1.83,0.59,3.28,1.51,4.34c0.7,0.82,1.55,1.23,2.54,1.23c0.61,0,1.16-0.16,1.66-0.49
			c0.5-0.33,1.03-0.92,1.6-1.78l0.52,0.32c-0.77,1.53-1.63,2.61-2.56,3.24c-0.94,0.64-2.02,0.95-3.25,0.95
			c-2.12,0-3.72-0.79-4.81-2.36c-0.88-1.27-1.31-2.84-1.31-4.73c0-2.3,0.64-4.14,1.93-5.5c1.29-1.37,2.8-2.05,4.53-2.05
			c1.45,0,2.7,0.57,3.76,1.72C235.33,127.45,235.91,129.15,235.99,131.4z M232.23,130.41c0-1.59-0.09-2.67-0.27-3.26
			c-0.18-0.59-0.45-1.04-0.83-1.34c-0.21-0.18-0.5-0.27-0.86-0.27c-0.53,0-0.96,0.25-1.3,0.75c-0.6,0.87-0.9,2.08-0.9,3.6v0.52
			H232.23z"/>
		<path class="st0" d="M243.14,124.99v3.13c0.95-1.43,1.78-2.37,2.49-2.84c0.71-0.47,1.4-0.7,2.06-0.7c0.57,0,1.03,0.17,1.37,0.51
			c0.34,0.34,0.51,0.82,0.51,1.44c0,0.66-0.16,1.17-0.5,1.54c-0.33,0.36-0.73,0.55-1.2,0.55c-0.54,0-1.01-0.17-1.41-0.5
			c-0.4-0.34-0.63-0.52-0.7-0.56c-0.1-0.06-0.22-0.09-0.35-0.09c-0.29,0-0.57,0.11-0.84,0.32c-0.42,0.33-0.73,0.81-0.95,1.43
			c-0.33,0.96-0.49,2.01-0.49,3.16v3.18l0.01,0.83c0,0.56,0.04,0.92,0.11,1.08c0.12,0.27,0.3,0.46,0.54,0.59
			c0.24,0.12,0.64,0.2,1.21,0.23v0.53h-7.71v-0.53c0.62-0.05,1.04-0.21,1.26-0.5c0.22-0.28,0.33-1.02,0.33-2.22v-7.64
			c0-0.79-0.04-1.29-0.12-1.5c-0.1-0.28-0.25-0.48-0.44-0.61c-0.19-0.13-0.53-0.22-1.02-0.27v-0.54H243.14z"/>
		<path class="st0" d="M126.8,120.73c1.08-0.72,2.27-1.08,3.56-1.08c1.55,0,2.93,0.48,4.15,1.45c1.22,0.96,2.06,2.35,2.5,4.17h0.6
			v-3.94c-1.08-0.88-2.13-1.46-2.92-1.81c-0.23-0.08-0.48-0.17-0.77-0.28c-1.62-0.61-3.16-0.92-4.61-0.92
			c-1.98,0-3.84,0.47-5.6,1.42c-1.75,0.95-3.15,2.28-4.18,3.99c-1.03,1.71-1.55,3.53-1.55,5.43c0,1.81,0.47,3.52,1.4,5.12
			c0.93,1.61,2.26,2.84,3.97,3.69c1.72,0.86,3.68,1.29,5.89,1.29c1.68,0,3.15-0.26,4.41-0.79c1.26-0.53,2.47-1.37,3.63-2.55v-1.73
			c-1.2,1.35-2.35,2.3-3.43,2.85c-1.08,0.55-2.28,0.83-3.58,0.83c-1.59,0-2.88-0.38-3.88-1.13c-1-0.75-1.73-1.87-2.2-3.34
			c-0.47-1.47-0.7-3.1-0.7-4.9c0-1.82,0.32-3.47,0.96-4.96C124.93,122.39,125.72,121.45,126.8,120.73z"/>
	</g>
</g>
</svg>
