<?xml version="1.0" encoding="utf-8"?>
<!-- Generator: Adobe Illustrator 27.4.0, SVG Export Plug-In . SVG Version: 6.00 Build 0)  -->
<svg version="1.1" id="Layer_1" xmlns="http://www.w3.org/2000/svg" xmlns:xlink="http://www.w3.org/1999/xlink" x="0px" y="0px"
	 viewBox="0 0 9370.18 3026.45" style="enable-background:new 0 0 9370.18 3026.45;" xml:space="preserve">
<style type="text/css">
	.st0{fill:#FFFFFF;}
	.st1{fill:#231F20;}
	.st2{fill:#0367AF;}
	.st3{fill:#EC2227;}
	.st4{fill:none;stroke:#0568AF;stroke-width:55.7722;stroke-linecap:round;stroke-miterlimit:10;}
</style>
<rect x="4626.22" y="1493.46" class="st0" width="224.2" height="124.14"/>
<g>
	<g>
		<path class="st1" d="M3921.48,2714.18l50.6-4.72c2.83,12.03,10.8,21.21,23.72,27.61c13.02,6.39,31.13,9.58,54.42,9.58
			c23.53,0,40.93-2.82,52.3-8.49c11.36-5.64,17.05-12.28,17.05-19.93c0-6.81-4.97-12.2-15.07-16.16
			c-6.95-2.68-24.43-6.09-52.27-10.24c-37.51-5.61-63.52-10.44-78.02-14.57c-14.48-4.07-25.42-9.74-32.97-16.97
			c-7.45-7.23-11.22-15.24-11.22-23.98c0-7.95,3.14-15.3,9.24-22.11c6.18-6.78,14.55-12.42,25.13-16.92
			c7.97-3.46,18.84-6.39,32.54-8.82c13.79-2.4,28.5-3.63,44.21-3.63c23.72,0,44.47,2.01,62.36,6.06
			c17.9,4.05,31.12,9.49,39.66,16.42c8.51,6.89,14.4,16.13,17.61,27.66l-50.01,4.02c-2.29-9.16-8.82-16.36-19.76-21.52
			c-10.87-5.14-26.29-7.73-46.19-7.73c-23.44,0-40.2,2.32-50.29,6.89c-10.02,4.63-15.07,9.99-15.07,16.14
			c0,3.96,2.15,7.51,6.25,10.61c4.2,3.29,10.73,5.97,19.62,8.07c5.11,1.14,20.18,3.71,45.17,7.76
			c36.24,5.72,61.47,10.41,75.73,14.04c14.36,3.66,25.58,8.96,33.69,15.88c8.16,6.98,12.22,15.6,12.22,25.9
			c0,10.1-4.97,19.6-14.93,28.53c-9.95,8.9-24.28,15.8-43.05,20.68c-18.74,4.88-39.92,7.31-63.66,7.31
			c-39.21,0-69.04-4.8-89.64-14.46C3940.31,2747.46,3927.18,2733.17,3921.48,2714.18z"/>
		<path class="st1" d="M4502.62,2745.47c-18.91,9.55-37.16,16.28-54.7,20.18c-17.47,3.96-36.31,5.89-56.42,5.89
			c-33.1,0-58.59-4.8-76.44-14.38c-17.75-9.6-26.71-21.83-26.71-36.76c0-8.74,3.42-16.72,10.09-23.98
			c6.75-7.23,15.56-13.03,26.43-17.39c10.94-4.38,23.15-7.65,36.8-9.94c10.09-1.56,25.23-3.07,45.46-4.55
			c41.35-2.88,71.77-6.39,91.22-10.41c0.21-4.13,0.28-6.78,0.28-7.9c0-12.34-4.83-21.05-14.48-26.1
			c-13.09-6.81-32.47-10.24-58.26-10.24c-24.03,0-41.78,2.51-53.29,7.48c-11.43,5-19.9,13.85-25.44,26.49l-50.01-4.02
			c4.55-12.67,12.07-22.89,22.45-30.7c10.44-7.79,25.51-13.79,45.17-18c19.76-4.21,42.56-6.31,68.5-6.31
			c25.8,0,46.75,1.81,62.81,5.39c16.12,3.6,27.99,8.12,35.51,13.54c7.61,5.47,12.95,12.31,15.92,20.6
			c1.72,5.17,2.57,14.46,2.57,27.94v40.36c0,28.16,1.13,45.97,3.25,53.4c2.22,7.48,6.56,14.65,12.95,21.46h-53.43
			C4507.59,2761.25,4504.17,2753.88,4502.62,2745.47z M4498.35,2677.87c-18.53,4.49-46.38,8.32-83.53,11.42
			c-21.03,1.82-35.89,3.82-44.61,6.06c-8.68,2.29-15.42,5.56-20.18,9.86c-4.69,4.32-7.12,9.13-7.12,14.37
			c0,8.07,5.19,14.79,15.49,20.18c10.37,5.39,25.44,8.07,45.34,8.07c19.74,0,37.23-2.51,52.55-7.65
			c15.35-5.08,26.65-12.06,33.84-20.93c5.54-6.81,8.23-16.92,8.23-30.29V2677.87z"/>
		<path class="st1" d="M4700.98,2767.53v-246.62h51.14v246.62H4700.98z"/>
		<path class="st1" d="M5110.74,2710l52.86,3.85c-8.3,18.28-23.72,32.46-46.31,42.57c-22.54,10.08-51.31,15.13-86.39,15.13
			c-44.13,0-79.12-8.04-105.02-24.15c-25.84-16.05-38.78-38.63-38.78-67.69c0-30.04,13.09-53.37,39.21-69.98
			c26.17-16.58,60.12-24.9,101.77-24.9c40.31,0,73.28,8.15,98.88,24.4c25.56,16.28,38.34,39.14,38.34,68.64
			c0,1.79-0.05,4.49-0.28,8.07h-225.07c1.93,19.63,11.31,34.64,28.15,45.08c16.93,10.44,37.96,15.63,63.09,15.63
			c18.77,0,34.8-2.9,48-8.74C5092.49,2732.11,5103.01,2722.78,5110.74,2710z M4942.82,2661.04h168.49
			c-2.26-15.01-8.63-26.29-19.29-33.8c-16.27-11.67-37.39-17.5-63.38-17.5c-23.49,0-43.2,4.66-59.28,13.96
			C4953.38,2633.04,4944.52,2645.49,4942.82,2661.04z"/>
		<path class="st1" d="M5280.12,2714.18l50.6-4.72c2.83,12.03,10.8,21.21,23.72,27.61c12.97,6.39,31.13,9.58,54.42,9.58
			c23.53,0,40.93-2.82,52.3-8.49c11.37-5.64,17.02-12.28,17.02-19.93c0-6.81-4.95-12.2-15.04-16.16
			c-6.98-2.68-24.42-6.09-52.29-10.24c-37.49-5.61-63.52-10.44-77.99-14.57c-14.52-4.07-25.47-9.74-32.96-16.97
			c-7.45-7.23-11.23-15.24-11.23-23.98c0-7.95,3.11-15.3,9.24-22.11c6.18-6.78,14.52-12.42,25.14-16.92
			c7.97-3.46,18.81-6.39,32.54-8.82c13.77-2.4,28.48-3.63,44.18-3.63c23.72,0,44.47,2.01,62.39,6.06
			c17.87,4.05,31.12,9.49,39.61,16.42c8.54,6.89,14.43,16.13,17.64,27.66l-50.04,4.02c-2.26-9.16-8.77-16.36-19.71-21.52
			c-10.89-5.14-26.31-7.73-46.21-7.73c-23.44,0-40.17,2.32-50.27,6.89c-10.04,4.63-15.09,9.99-15.09,16.14
			c0,3.96,2.17,7.51,6.27,10.61c4.2,3.29,10.7,5.97,19.61,8.07c5.09,1.14,20.18,3.71,45.18,7.76c36.22,5.72,61.44,10.41,75.73,14.04
			c14.34,3.66,25.56,8.96,33.67,15.88c8.16,6.98,12.21,15.6,12.21,25.9c0,10.1-4.95,19.6-14.9,28.53
			c-9.95,8.9-24.33,15.8-43.05,20.68c-18.77,4.88-39.94,7.31-63.66,7.31c-39.23,0-69.08-4.8-89.65-14.46
			C5298.94,2747.46,5285.78,2733.17,5280.12,2714.18z"/>
		<path class="st1" d="M6136.89,2738.41c-16.83,11.11-35.22,19.43-55.12,24.98c-19.9,5.55-41.35,8.32-64.51,8.32
			c-42.63,0-76.44-8.49-101.43-25.57c-20.28-13.87-30.42-29.42-30.42-46.59c0-15.21,8.3-29.03,24.85-41.28
			c16.65-12.28,41.35-23.06,74.31-32.41c-18.76-12.79-31.26-23.11-37.49-31.1c-6.27-7.95-9.39-15.66-9.39-23.06
			c0-14.79,9.81-27.66,29.43-38.6c19.57-10.94,44.33-16.42,73.99-16.42c28.44,0,51.73,5.19,69.79,15.49
			c18.11,10.33,27.11,22.7,27.11,37.18c0,23.45-26.22,43.46-78.7,60.04l74.74,56.36c8.53-9.85,15.18-21.3,19.9-34.33l53.14,6.73
			c-9.1,21.55-21.41,39.3-36.97,53.17c19.19,15.05,40.89,27.66,65.08,37.85l-34.38,24.04
			C6180.23,2765.41,6158.92,2753.79,6136.89,2738.41z M6104.78,2714.52l-93.75-68.81c-27.68,9.77-46.36,18.84-56.02,27.19
			c-9.67,8.38-14.48,16.64-14.48,24.81c0,10,6.75,20.35,20.18,31.12c13.49,10.75,32.54,16.14,57.11,16.14
			c15.37,0,31.27-2.82,47.63-8.49C6081.87,2730.85,6094.98,2723.54,6104.78,2714.52z M6032.92,2609.9
			c22.16-7.73,36.5-14.51,43.05-20.35c6.51-5.81,9.76-12.28,9.76-19.35c0-8.43-4.43-15.27-13.49-20.63
			c-8.96-5.27-20.18-7.98-33.67-7.98c-13.77,0-25.27,2.65-34.52,7.93c-9.15,5.27-13.77,11.72-13.77,19.32
			c0,3.85,1.7,7.84,4.95,12.03c3.35,4.21,8.3,8.68,14.9,13.37L6032.92,2609.9z"/>
		<path class="st1" d="M6573.7,2714.18l50.55-4.72c2.88,12.03,10.8,21.21,23.72,27.61c13.02,6.39,31.13,9.58,54.47,9.58
			c23.48,0,40.88-2.82,52.25-8.49c11.36-5.64,17.07-12.28,17.07-19.93c0-6.81-4.95-12.2-15.04-16.16
			c-6.98-2.68-24.48-6.09-52.29-10.24c-37.54-5.61-63.52-10.44-78.04-14.57c-14.48-4.07-25.42-9.74-32.97-16.97
			c-7.45-7.23-11.22-15.24-11.22-23.98c0-7.95,3.16-15.3,9.24-22.11c6.18-6.78,14.57-12.42,25.18-16.92
			c7.92-3.46,18.82-6.39,32.54-8.82c13.77-2.4,28.48-3.63,44.19-3.63c23.72,0,44.47,2.01,62.34,6.06
			c17.92,4.05,31.12,9.49,39.66,16.42c8.53,6.89,14.43,16.13,17.63,27.66l-50.03,4.02c-2.26-9.16-8.82-16.36-19.76-21.52
			c-10.85-5.14-26.26-7.73-46.16-7.73c-23.44,0-40.23,2.32-50.32,6.89c-10,4.63-15.05,9.99-15.05,16.14c0,3.96,2.12,7.51,6.27,10.61
			c4.15,3.29,10.71,5.97,19.57,8.07c5.14,1.14,20.18,3.71,45.22,7.76c36.22,5.72,61.45,10.41,75.73,14.04
			c14.34,3.66,25.56,8.96,33.67,15.88c8.16,6.98,12.22,15.6,12.22,25.9c0,10.1-5,19.6-14.95,28.53c-9.95,8.9-24.28,15.8-43.05,20.68
			c-18.72,4.88-39.9,7.31-63.61,7.31c-39.23,0-69.08-4.8-89.69-14.46C6592.52,2747.46,6579.36,2733.17,6573.7,2714.18z"/>
		<path class="st1" d="M7164.47,2710l52.86,3.85c-8.3,18.28-23.72,32.46-46.3,42.57c-22.54,10.08-51.31,15.13-86.39,15.13
			c-44.14,0-79.13-8.04-105.02-24.15c-25.84-16.05-38.76-38.63-38.76-67.69c0-30.04,13.06-53.37,39.19-69.98
			c26.17-16.58,60.12-24.9,101.76-24.9c40.32,0,73.28,8.15,98.89,24.4c25.56,16.28,38.34,39.14,38.34,68.64
			c0,1.79-0.05,4.49-0.29,8.07h-225.02c1.88,19.63,11.27,34.64,28.1,45.08c16.93,10.44,37.96,15.63,63.1,15.63
			c18.76,0,34.8-2.9,48-8.74C7146.22,2732.11,7156.74,2722.78,7164.47,2710z M6996.55,2661.04h168.48
			c-2.26-15.01-8.63-26.29-19.29-33.8c-16.27-11.67-37.39-17.5-63.38-17.5c-23.43,0-43.19,4.66-59.27,13.96
			C7007.11,2633.04,6998.24,2645.49,6996.55,2661.04z"/>
		<path class="st1" d="M7353.75,2767.53v-178.65h46.03v27.08c11.79-12.67,22.58-21.02,32.54-25.07c9.95-4.05,20.89-6.06,32.82-6.06
			c17.26,0,34.8,3.27,52.58,9.74l-17.63,28.11c-12.5-4.38-24.99-6.56-37.49-6.56c-11.17,0-21.17,2.01-30.13,5.97
			c-8.87,3.99-15.18,9.49-19.05,16.55c-5.66,10.78-8.49,22.56-8.49,35.34v93.54H7353.75z"/>
		<path class="st1" d="M7704.68,2767.53l-114.77-178.65h53.99l64.79,106.97c7.03,11.58,13.49,23.56,19.29,36.01
			c4.58-9.44,10.94-20.74,19.05-33.97l67.05-109h52.58l-114.21,178.65H7704.68z"/>
		<path class="st1" d="M7984.88,2555.72v-34.81h51.16v34.81H7984.88z M7984.88,2767.53v-178.65h51.16v178.65H7984.88z"/>
		<path class="st1" d="M8383.58,2702.07l50.32,3.88c-5.47,20.52-19.57,36.6-42.2,48.18c-22.59,11.61-50.46,17.42-83.42,17.42
			c-41.26,0-74.46-7.98-99.59-23.98c-25.09-15.97-37.68-38.86-37.68-68.7c0-19.26,5.42-36.18,16.22-50.64
			c10.8-14.46,27.25-25.32,49.33-32.55c22.07-7.23,46.07-10.86,72.01-10.86c32.82,0,59.61,4.91,80.45,14.71
			c20.89,9.85,34.24,23.78,40.04,41.81l-49.7,4.55c-4.72-12-13.11-21.05-25.18-27.1c-11.98-6.06-26.55-9.07-43.62-9.07
			c-25.7,0-46.64,5.47-62.76,16.39c-16.08,10.94-24.19,28.27-24.19,51.92c0,24,7.83,41.45,23.29,52.31
			c15.56,10.88,35.84,16.3,60.83,16.3c20.09,0,36.88-3.6,50.32-10.92C8371.51,2728.45,8380.04,2717.23,8383.58,2702.07z"/>
		<path class="st1" d="M8757.01,2710l52.86,3.85c-8.34,18.28-23.77,32.46-46.35,42.57c-22.5,10.08-51.26,15.13-86.39,15.13
			c-44.09,0-79.13-8.04-105.02-24.15c-25.84-16.05-38.76-38.63-38.76-67.69c0-30.04,13.06-53.37,39.23-69.98
			c26.12-16.58,60.07-24.9,101.71-24.9c40.36,0,73.33,8.15,98.88,24.4c25.56,16.28,38.39,39.14,38.39,68.64
			c0,1.79-0.1,4.49-0.29,8.07h-225.07c1.93,19.63,11.27,34.64,28.1,45.08c16.93,10.44,37.96,15.63,63.09,15.63
			c18.77,0,34.85-2.9,48.06-8.74C8738.71,2732.11,8749.23,2722.78,8757.01,2710z M8589.04,2661.04h168.53
			c-2.31-15.01-8.68-26.29-19.33-33.8c-16.27-11.67-37.39-17.5-63.38-17.5c-23.43,0-43.19,4.66-59.22,13.96
			C8599.65,2633.04,8590.74,2645.49,8589.04,2661.04z"/>
		<path class="st1" d="M8926.34,2714.18l50.6-4.72c2.83,12.03,10.8,21.21,23.72,27.61c13.01,6.39,31.12,9.58,54.42,9.58
			c23.53,0,40.93-2.82,52.3-8.49c11.37-5.64,17.07-12.28,17.07-19.93c0-6.81-5-12.2-15.09-16.16c-6.93-2.68-24.43-6.09-52.3-10.24
			c-37.49-5.61-63.47-10.44-78-14.57c-14.48-4.07-25.41-9.74-32.96-16.97c-7.45-7.23-11.22-15.24-11.22-23.98
			c0-7.95,3.11-15.3,9.24-22.11c6.18-6.78,14.57-12.42,25.13-16.92c7.97-3.46,18.86-6.39,32.54-8.82
			c13.82-2.4,28.49-3.63,44.19-3.63c23.76,0,44.47,2.01,62.39,6.06c17.91,4.05,31.12,9.49,39.65,16.42
			c8.54,6.89,14.43,16.13,17.59,27.66l-49.99,4.02c-2.26-9.16-8.82-16.36-19.75-21.52c-10.89-5.14-26.27-7.73-46.17-7.73
			c-23.43,0-40.22,2.32-50.32,6.89c-10,4.63-15.04,9.99-15.04,16.14c0,3.96,2.12,7.51,6.22,10.61c4.2,3.29,10.75,5.97,19.62,8.07
			c5.14,1.14,20.18,3.71,45.17,7.76c36.26,5.72,61.45,10.41,75.73,14.04c14.38,3.66,25.6,8.96,33.67,15.88
			c8.2,6.98,12.26,15.6,12.26,25.9c0,10.1-5,19.6-14.95,28.53c-9.95,8.9-24.29,15.8-43.05,20.68c-18.77,4.88-39.94,7.31-63.66,7.31
			c-39.19,0-69.04-4.8-89.64-14.46C8945.21,2747.46,8932.05,2733.17,8926.34,2714.18z"/>
	</g>
	<g>
		<path class="st2" d="M7402.32,1934.8h-284.73v-51.73c0-24.14-3.63-39.53-10.94-46.14c-7.26-6.59-19.38-9.91-36.36-9.91
			c-18.48,0-32.4,4.44-41.92,13.4c-9.39,8.93-14.15,22.41-14.15,40.56c0,23.25,5.33,40.81,15.98,52.59
			c10.09,11.78,39,25.99,86.58,42.65c136.47,47.93,222.44,87.31,257.85,118.05c35.46,30.73,53.14,80.31,53.14,148.7
			c0,49.71-9.81,86.34-29.42,109.9c-19.76,23.59-57.67,43.29-113.98,59.29c-56.4,15.94-121.9,23.9-196.64,23.9
			c-82.05,0-152.03-9.18-210.08-27.55c-58.05-18.42-95.96-41.84-113.93-70.29c-17.97-28.47-26.92-68.78-26.92-121.09v-45.7h284.73
			v84.91c0,26.13,3.96,42.93,11.93,50.44c8.02,7.43,22.26,11.16,42.63,11.16c20.42,0,35.51-4.74,45.46-14.21
			c9.95-9.46,14.95-23.56,14.95-42.23c0-41.06-9.38-67.94-28.34-80.61c-19.43-12.65-67.29-33.75-143.45-63.36
			c-76.25-29.87-126.75-51.56-151.46-65.07c-24.76-13.48-45.27-32.16-61.54-56.05c-16.27-23.84-24.43-54.29-24.43-91.33
			c0-53.45,11.56-92.53,34.66-117.27c23.01-24.7,60.26-44.02,111.76-57.98c51.45-13.93,113.6-20.91,186.36-20.91
			c79.65,0,147.46,7.62,203.53,22.83c56.07,15.27,93.22,34.45,111.47,57.59c18.16,23.11,27.26,62.39,27.26,117.88V1934.8z"/>
		<path class="st2" d="M8180.67,2050.31v140.04c0,51.47-4.38,89.16-13.06,113.19c-8.82,23.95-27.4,46.37-56.11,67.24
			c-28.62,20.8-65.36,36.21-110.25,46.09c-44.89,9.91-96.48,14.88-154.77,14.88c-65.07,0-120.2-4.24-165.28-12.7
			c-45.13-8.48-80.21-21.27-105.25-38.38c-24.99-17.08-42.82-37.77-53.47-62.05c-10.75-24.29-15.99-60.71-15.99-109.28v-146.52
			c0-53.15,9.67-94.71,29.14-124.58c19.29-29.9,54.28-53.85,104.83-71.99c50.46-18.09,114.97-27.16,193.67-27.16
			c65.92,0,122.65,5.83,169.95,17.5c47.39,11.61,83.89,26.77,109.64,45.44c25.79,18.68,43.34,37.94,52.77,57.75
			C8176.01,1979.63,8180.67,2009.78,8180.67,2050.31z M7886.56,2007.21c0-29.31-2.69-47.76-8.11-55.38
			c-5.23-7.62-16.7-11.44-34.14-11.44c-17.49,0-29.14,3.82-34.99,11.44c-5.8,7.62-8.73,26.07-8.73,55.38v258.17
			c0,26.99,2.93,44.64,8.73,52.79c5.85,8.21,17.31,12.28,34.28,12.28c17.45,0,28.95-3.71,34.56-11.19
			c5.56-7.48,8.39-23.56,8.39-48.29V2007.21z"/>
		<path class="st2" d="M8652.46,1723.61v88.35c-60.64,0-96.43,1.65-107.32,4.97c-10.94,3.27-16.41,12.7-16.41,28.22v18.09h123.74
			v90.52h-69.79v467.64h-294.3v-467.64h-60.36v-90.52h60.36c0-37.66,2.31-62.75,6.6-75.42c4.34-12.64,15.14-23.92,32.4-33.83
			c17.26-9.88,41.45-17.47,72.48-22.64c31.03-5.17,79.37-7.73,144.86-7.73H8652.46z"/>
		<path class="st2" d="M9093.32,1773.15v90.08h79.41v90.52h-79.41v306.05c0,37.63,3.25,58.57,9.81,62.89
			c6.5,4.3,33.95,6.51,81.95,6.51v92.2H9066.4c-67.01,0-114.82-1.62-143.45-4.94c-28.72-3.29-53.85-10.91-75.73-22.83
			c-21.88-11.95-35.46-25.57-40.79-40.98c-5.38-15.35-8.02-51.5-8.02-108.36v-290.53h-63.28v-90.52h63.28v-90.08H9093.32z"/>
	</g>
	<path class="st3" d="M5762.44,1326.62h-801.22c-6.56,0-13.01,0.21-19.33,0.59l-330.7-136.14
		c-185.56-86.42-151.75-134.45-151.75-134.45V902.25v-4.12V743.75c0,0-33.81-47.98,151.75-134.46l322.16-132.59
		c9.1,0.75,18.44,1.21,27.87,1.21h801.22c104.78,0,189.75-50.33,189.75-112.37c0-62.02-84.97-112.33-189.75-112.33h-854.23
		c-0.14,0.25-0.28,0.46-0.35,0.67c-84.13,3.88-126.31,25.11-126.31,25.11L4265.4,522.83c0,0-177.11,72.09-177.11,268.99v106.31v4.12
		v106.35c0,196.9,177.11,268.94,177.11,268.94l561.6,240.81c34.3,20.35,81.77,32.93,134.21,32.93h801.22
		c104.78,0,189.75-50.3,189.75-112.33C5952.19,1376.91,5867.21,1326.62,5762.44,1326.62z"/>
	<path class="st4" d="M5520.38,1046.07l-283.88-168.09c0,0-154.44-144.5,34.8-262.46c189.33-117.91,508.1-64.84,582.84,64.9
		c0,0,14.9,29.48-54.84,53.06c-69.69,23.6-199.19-70.78-199.19-70.78s-119.58-47.19-204.28,20.64c0,0-114.59,61.96,39.85,153.39
		l239.12,156.26c0,0,124.49,103.21-74.7,168.05c-199.23,64.89-273.97-85.5-273.97-85.5s-39.94-53.07-129.58-11.77
		c0,0-79.69,35.37,24.95,120.85c104.64,85.54,388.52,132.73,572.85,11.82c0,0,94.69-129.74,169.33-32.42
		c74.74,97.31,29.99,117.96,64.79,117.96"/>
	<path class="st2" d="M5989.21,1306.67c0,0-50.79,49.55,55.83,94.63c106.57,45.04,286.8,108.16,423.79,180.28
		c137.03,72.07,301.94,51.05,444.07-9.04c142.17-60.09,76.11-190.75-134.44-250.85c-210.65-60.1-309.62-61.61-309.62-61.61
		s-167.17,45.54-282.75,92.31c0,0,304.49,87.13,332.4,154.71l16.36,53.41c0,0-152.27-91.64-334.99-154.73
		C6017.12,1342.73,5984.16,1338.22,5989.21,1306.67z"/>
	<g>
		<g>
			<path class="st2" d="M6009.53,1285.61c0,0,53.19,39.07,139.58,54.08c0,0,45.97-40.5,96.01-57.24c0,0-70.69-35.91-113.84-26.88
				C6131.28,1255.58,6067.86,1254.07,6009.53,1285.61z"/>
			<path class="st2" d="M6270.91,1270.6c0,0-50.74-22.54-81.2-25.53c0,0,118.13-23.75,212.06,7.79
				C6401.77,1252.86,6311.52,1255.58,6270.91,1270.6z"/>
		</g>
	</g>
	<g>
		<path class="st1" d="M1564.82,1997.33c60.03,0,115.89,8.85,167.45,26.63c51.59,17.7,90.87,42.88,117.66,75.53
			c26.79,32.63,40.15,68.36,40.15,107.19c0,56.02-24.73,102.86-74.46,140.57c-59.96,45.61-142.81,68.39-248.44,68.39
			c-103.72,0-183.65-20.85-239.79-62.5c-55.9-41.62-84.03-89.91-84.03-144.73c0-56.61,28.7-105.91,85.97-148
			C1386.57,2018.35,1465.15,1997.33,1564.82,1997.33z M1567.89,2027.31c-25.09,0-46.62,5.39-64.58,16.25
			c-17.96,10.8-29.68,32.24-35.39,64.17c-5.68,31.91-8.44,76.32-8.44,133.18c0,30.06,3.35,58.2,10.3,84.41
			c5.47,19.99,16.98,35.14,34.66,45.59c17.68,10.38,37.79,15.6,60.38,15.6c22.16,0,40.65-3.55,55.36-10.52
			c19.24-9.58,32.01-22.94,38.36-40.14c9.88-26.71,14.76-80.75,14.76-162.1c0-47.82-4.67-80.64-14.06-98.54
			c-9.31-17.86-23.08-30.9-41.28-39.05C1605.18,2030.3,1588.49,2027.31,1567.89,2027.31z"/>
		<path class="st1" d="M2253.81,2009.17v51.92c37.79-23.64,72.88-40.2,105.06-49.63c32.18-9.38,67.43-14.13,105.79-14.13
			c44.26,0,81.34,5.95,111.41,17.75c29.89,11.87,53.05,29.81,69.24,53.99c39.38-25.26,77.1-43.6,113.18-54.82
			c36.17-11.28,73.89-16.92,113.24-16.92c47.67,0,85.61,6.23,113.88,18.76c28.29,12.53,47.96,28.44,59.04,47.73
			c11.08,19.26,16.62,49.99,16.62,92.28v161.59c0,30.37,4.76,49.24,14.29,56.58c9.67,7.26,29.61,12.06,60.17,14.37v15.13h-356.22
			v-15.13c28.06-1.42,48.66-7.62,61.96-18.59c8.8-7.62,13.27-25.07,13.27-52.37v-169.69c0-35.14-2.4-57.53-7.38-67.11
			c-4.91-9.6-12.66-16.66-23.18-21.3c-10.58-4.66-23.01-6.92-37.3-6.92c-21.15,0-42.46,4.38-64.14,13.29
			c-21.59,8.82-43.47,22.16-65.64,39.83v211.89c0,28.39,4.17,46.31,12.5,53.62c11.29,10.38,32.96,16.16,64.93,17.33v15.13h-356.92
			v-15.13c19.17-0.64,34.38-3.32,45.39-8.29c11.08-4.91,18.42-10.8,22.02-17.67c3.77-6.98,5.61-21.91,5.61-45v-169.69
			c0-35.73-2.48-58.12-7.38-67.11c-4.98-8.96-13.16-16.02-24.67-21.07c-11.57-5.08-24-7.65-37.3-7.65c-19.67,0-37.59,2.99-53.76,8.9
			c-23.18,8.76-47.75,23.64-73.75,44.72v211.89c0,27.89,4.77,46.23,14.29,55.1c9.64,8.82,29.61,14.12,60.17,15.85v15.13h-355.43
			v-15.13c28.98-1.73,49.65-7.12,61.94-16.02c8.32-6.23,12.52-24.56,12.52-54.93v-222.84c0-29.87-4.83-48.37-14.43-55.72
			c-9.52-7.31-29.54-12.11-60.03-14.4v-15.58H2253.81z"/>
		<path class="st1" d="M3465.38,2363.7v146.85c0,20.32,2.93,34.11,8.54,41.39c5.68,7.31,14.34,12.7,26.12,16.05
			c11.88,3.38,34.97,5.11,69.35,5.11v15.55h-393v-15.55c30.39-0.64,53.12-5.53,67.83-14.82c9.81-6.47,14.78-23.2,14.78-50.19
			v-416.61c0-27.89-5.68-45.7-16.97-53.46c-11.29-7.67-33.18-12.14-65.64-13.29v-15.58h288.99v51.92
			c24.14-20.27,48.74-34.89,73.75-43.91c35.93-13.23,75.02-19.85,117.28-19.85c50.67,0,96.69,9.13,138.33,27.41
			c41.5,18.34,73.12,43.57,94.72,75.79c21.59,32.21,32.46,66.88,32.46,104.06c0,39.97-11.25,76.46-33.62,109.51
			c-22.37,33.08-54.77,58.28-97.33,75.59c-42.56,17.31-89.79,25.96-141.94,25.96c-37.87,0-73.26-4.8-106.15-14.37
			C3518.31,2393.96,3492.45,2381.42,3465.38,2363.7z M3465.38,2321.08c42.35,34.36,87.52,51.56,135.69,51.56
			c26.57,0,48.45-8.07,65.64-24.14c25.58-23.64,38.36-68.64,38.36-135.05c0-68.11-13.98-114.67-42.04-139.74
			c-18.7-16.58-43.69-24.9-75.16-24.9c-49.68,0-90.51,20.57-122.49,61.66V2321.08z"/>
		<path class="st1" d="M4677.1,2009.17v308.95c0,30.12,4.91,48.9,14.79,56.36c9.81,7.45,29.68,12.14,59.67,14.18v15.13h-280.98
			v-52.73c-32.82,22.56-65.78,38.91-98.74,49.16c-32.96,10.27-69.77,15.44-110.63,15.44c-38.86,0-73.37-6.87-103.58-20.49
			c-30.25-13.65-50.5-29.64-60.88-47.9c-10.3-18.28-15.49-50.24-15.49-95.83v-156.57c0-29.87-4.76-48.37-14.36-55.72
			c-9.58-7.31-29.61-12.11-60.1-14.4v-15.58h280.98v269.73c0,28.14,2.29,46.25,6.98,54.4c4.67,8.21,12,14.38,22.09,18.56
			c10.07,4.24,21.81,6.34,35.01,6.34c17.75,0,33.67-2.68,47.96-7.98c19.69-7.31,43.34-22.08,70.76-44.33v-211.03
			c0-29.87-4.69-48.37-14.29-55.72c-9.64-7.31-29.61-12.11-60.17-14.4v-15.58H4677.1z"/>
		<path class="st1" d="M5097.54,1864.77v144.4h163.77v41.79h-163.77v243.49c0,22.83,1.84,37.57,5.47,44.16
			c3.77,6.61,10.23,11.95,19.62,16.02c9.38,4.08,17.92,6.14,25.84,6.14c31.93,0,62.2-13.93,90.68-41.82l22.16,9.3
			c-39.94,54.04-104.49,81.06-194.04,81.06c-43.76,0-80.68-7.01-110.96-20.91c-30.2-13.93-49.51-29.48-57.91-46.65
			c-4.91-9.57-7.31-35.51-7.31-77.63v-213.18h-90.02v-14.79c61.96-25.04,114.66-51.3,158.2-78.94
			c43.57-27.55,81.44-58.34,113.88-92.45H5097.54z"/>
		<path class="st1" d="M5883.72,2192.34h-378.24c4.38,52.37,28.67,93.71,72.95,124.08c33.95,23.36,74.74,35.06,122.42,35.06
			c29.57,0,56.25-4.66,80.4-14.13c24.1-9.44,49.89-26.38,77.38-50.86l25.09,9.27c-37.39,43.6-78.66,74.47-123.83,92.65
			c-45.27,18.17-97.61,27.24-157.07,27.24c-102.33,0-179.76-22.56-232.34-67.58c-42.35-36.26-63.38-81.25-63.38-135.07
			c0-65.76,31.07-118.21,93.22-157.15c62.15-39.02,135.06-58.51,218.67-58.51c69.79,0,130.39,16.36,181.73,49.21
			C5852.08,2079.29,5879.8,2127.91,5883.72,2192.34z M5702.31,2164.09c0-45.33-4.29-76.46-12.92-93.31
			c-8.59-16.89-21.93-29.67-40.18-38.41c-10.32-5.05-24.1-7.62-41.31-7.62c-25.56,0-46.4,7.2-62.67,21.58
			c-28.95,24.98-43.53,59.35-43.53,102.94v14.82H5702.31z"/>
		<path class="st1" d="M6228.99,2009.17v89.49c45.65-40.84,85.73-67.89,120.11-81.25c34.47-13.43,67.67-20.07,99.64-20.07
			c27.54,0,49.51,4.89,65.97,14.6c16.5,9.66,24.71,23.42,24.71,41.11c0,18.9-7.92,33.5-23.91,43.91
			c-15.99,10.38-35.32,15.6-57.91,15.6c-26.08,0-48.66-4.74-67.9-14.29c-19.15-9.63-30.51-14.93-33.91-16.08
			c-4.9-1.7-10.51-2.51-16.97-2.51c-14.2,0-27.73,3.07-40.56,9.27c-20.14,9.58-35.41,23.2-45.69,40.89
			c-15.8,27.35-23.58,57.42-23.58,90.36v90.78l0.71,23.59c0,16.08,1.7,26.32,5.19,30.79c5.9,7.65,14.62,13.2,26.22,16.75
			c11.51,3.52,31.03,5.67,58.52,6.56v15.13h-372.34v-15.13c29.9-1.42,50.22-6.14,60.83-14.18c10.56-7.98,15.89-29.17,15.89-63.5
			v-218.26c0-22.5-2.03-36.84-5.9-43.01c-4.95-7.9-12.07-13.68-21.46-17.34c-9.38-3.66-25.79-6.17-49.37-7.62v-15.58H6228.99z"/>
		<path class="st1" d="M611.28,1887.16c52.16-20.51,109.4-30.79,171.86-30.79c74.74,0,141.58,13.79,200.62,41.34
			c58.97,27.58,99.24,67.24,120.91,119.05h28.76v-112.6c-51.92-25.04-102.71-41.65-141.09-51.7c-11.01-2.18-23.08-4.72-37.35-7.9
			c-78.23-17.45-152.48-26.21-222.74-26.21c-95.4,0-185.49,13.51-270.32,40.53c-84.74,27.02-152.1,65.04-201.97,113.97
			c-49.94,48.99-74.88,100.77-74.88,155.31c0,51.81,22.52,100.6,67.48,146.46c44.98,45.89,108.93,81.06,191.69,105.51
			c82.83,24.54,177.61,36.76,284.33,36.76c81.06,0,152.03-7.51,212.77-22.61c60.74-15.02,119.07-39.27,175.11-72.8v-49.41
			c-57.95,38.55-113.24,65.77-165.59,81.48c-52.37,15.77-109.99,23.64-172.92,23.64c-76.65,0-139.11-10.72-187.28-32.3
			c-48.17-21.49-83.6-53.32-106.22-95.38c-22.58-42.07-33.88-88.68-33.88-139.96c0-52.01,15.49-99.32,46.47-141.75
			C521.12,1934.64,559.2,1907.73,611.28,1887.16z"/>
	</g>
</g>
</svg>
